<svg width="0" height="0" class="hidden">
  <symbol fill="none" xmlns="http://www.w3.org/2000/svg" viewBox="0 0 32 32" id="icon1">
    <g clip-path="url(#clip0_1_2010)">
      <path d="M24 13.3333H32L28 8L24 13.3333ZM24 18.6667H32L28 24L24 18.6667Z" fill="#D6B1FF"></path>
      <path d="M1.33333 0H9.33333V32H1.33333C0.979711 32 0.640572 31.8595 0.390523 31.6095C0.140475 31.3594 0 31.0203 0 30.6667V1.33333C0 0.979711 0.140475 0.640572 0.390523 0.390523C0.640572 0.140475 0.979711 0 1.33333 0Z" fill="#8C30F5"></path>
      <path d="M12 0H20C20.3536 0 20.6928 0.140475 20.9428 0.390523C21.1929 0.640572 21.3333 0.979711 21.3333 1.33333V30.6667C21.3333 31.0203 21.1929 31.3594 20.9428 31.6095C20.6928 31.8595 20.3536 32 20 32H12V0Z" fill="#2EC5CE"></path>
    </g>
    <defs>
      <clipPath id="clip0_1_2010">
        <rect width="32" height="32" fill="white"></rect>
      </clipPath>
    </defs>
  </symbol>
  <symbol fill="none" xmlns="http://www.w3.org/2000/svg" viewBox="0 0 30 30" id="icon2">
    <path d="M4.33333 0.333374H29.6667L25.6667 8.33337H0.333333L4.33333 0.333374Z" fill="#8C30F5"></path>
    <path d="M4.33333 11H29.6667L25.6667 19H0.333333L4.33333 11Z" fill="#2EC5CE"></path>
    <path d="M4.33333 21.6667H29.6667L25.6667 29.6667H0.333333L4.33333 21.6667Z" fill="#D6B1FF"></path>
  </symbol>
  <symbol fill="none" xmlns="http://www.w3.org/2000/svg" viewBox="0 0 30 30" id="icon3">
    <path d="M29.6667 7.00004V1.66671C29.6667 1.31309 29.5262 0.973946 29.2762 0.723897C29.0261 0.473849 28.687 0.333374 28.3333 0.333374H1.66668C1.31305 0.333374 0.973915 0.473849 0.723867 0.723897C0.473818 0.973946 0.333344 1.31309 0.333344 1.66671V7.00004H29.6667Z" fill="#2EC5CE"></path>
    <path d="M0.333344 9.66675V28.3334C0.333344 28.687 0.473818 29.0262 0.723867 29.2762C0.973915 29.5263 1.31305 29.6667 1.66668 29.6667H8.33334V9.66675H0.333344Z" fill="#D6B1FF"></path>
    <path d="M11 29.6667H28.3333C28.687 29.6667 29.0261 29.5263 29.2761 29.2762C29.5262 29.0262 29.6667 28.687 29.6667 28.3334V9.66675H11V29.6667Z" fill="#8C30F5"></path>
  </symbol>
  <symbol fill="none" xmlns="http://www.w3.org/2000/svg" viewBox="0 0 28 32" id="icon4">
    <path d="M26 32H14C13.6464 32 13.3072 31.8595 13.0572 31.6095C12.8071 31.3594 12.6667 31.0203 12.6667 30.6667V28C12.6667 27.6464 12.8071 27.3073 13.0572 27.0572C13.3072 26.8072 13.6464 26.6667 14 26.6667H26C26.3536 26.6667 26.6928 26.8072 26.9428 27.0572C27.1928 27.3073 27.3333 27.6464 27.3333 28V30.6667C27.3333 31.0203 27.1928 31.3594 26.9428 31.6095C26.6928 31.8595 26.3536 32 26 32Z" fill="#D6B1FF"></path>
    <path d="M26 0H1.99999C1.64637 0 1.30723 0.140475 1.05718 0.390523C0.807131 0.640572 0.666656 0.979711 0.666656 1.33333V4C0.666656 4.35362 0.807131 4.69276 1.05718 4.94281C1.30723 5.19286 1.64637 5.33333 1.99999 5.33333H26C26.3536 5.33333 26.6928 5.19286 26.9428 4.94281C27.1929 4.69276 27.3333 4.35362 27.3333 4V1.33333C27.3333 0.979711 27.1929 0.640572 26.9428 0.390523C26.6928 0.140475 26.3536 0 26 0Z" fill="#2EC5CE"></path>
    <path d="M26 8H1.99999C1.64637 8 1.30723 8.14047 1.05718 8.39052C0.807131 8.64057 0.666656 8.97971 0.666656 9.33333V22.6667C0.666656 23.0203 0.807131 23.3594 1.05718 23.6095C1.30723 23.8595 1.64637 24 1.99999 24H26C26.3536 24 26.6928 23.8595 26.9428 23.6095C27.1929 23.3594 27.3333 23.0203 27.3333 22.6667V9.33333C27.3333 8.97971 27.1929 8.64057 26.9428 8.39052C26.6928 8.14047 26.3536 8 26 8Z" fill="#8C30F5"></path>
  </symbol>
  <symbol fill="none" xmlns="http://www.w3.org/2000/svg" viewBox="0 0 30 30" id="icon5">
    <path d="M5.66667 0.333374H1.66667C1.31304 0.333374 0.973905 0.473849 0.723856 0.723897C0.473808 0.973946 0.333333 1.31309 0.333333 1.66671V28.3334C0.333333 28.687 0.473808 29.0261 0.723856 29.2762C0.973905 29.5262 1.31304 29.6667 1.66667 29.6667H5.66667V0.333374Z" fill="#D6B1FF"></path>
    <path d="M8.33333 29.6667H21.6667V0.333374H8.33333V29.6667ZM15 24.3334C14.6464 24.3334 14.3072 24.1929 14.0572 23.9429C13.8071 23.6928 13.6667 23.3537 13.6667 23C13.6667 22.6464 13.8071 22.3073 14.0572 22.0572C14.3072 21.8072 14.6464 21.6667 15 21.6667C15.3536 21.6667 15.6928 21.8072 15.9428 22.0572C16.1929 22.3073 16.3333 22.6464 16.3333 23C16.3333 23.3537 16.1929 23.6928 15.9428 23.9429C15.6928 24.1929 15.3536 24.3334 15 24.3334ZM15 5.66671C15.3536 5.66671 15.6928 5.80718 15.9428 6.05723C16.1929 6.30728 16.3333 6.64642 16.3333 7.00004C16.3333 7.35366 16.1929 7.6928 15.9428 7.94285C15.6928 8.1929 15.3536 8.33337 15 8.33337C14.6464 8.33337 14.3072 8.1929 14.0572 7.94285C13.8071 7.6928 13.6667 7.35366 13.6667 7.00004C13.6667 6.64642 13.8071 6.30728 14.0572 6.05723C14.3072 5.80718 14.6464 5.66671 15 5.66671ZM15 13.6667C15.3536 13.6667 15.6928 13.8072 15.9428 14.0572C16.1929 14.3073 16.3333 14.6464 16.3333 15C16.3333 15.3537 16.1929 15.6928 15.9428 15.9429C15.6928 16.1929 15.3536 16.3334 15 16.3334C14.6464 16.3334 14.3072 16.1929 14.0572 15.9429C13.8071 15.6928 13.6667 15.3537 13.6667 15C13.6667 14.6464 13.8071 14.3073 14.0572 14.0572C14.3072 13.8072 14.6464 13.6667 15 13.6667Z" fill="#8C30F5"></path>
    <path d="M28.3333 0.333374H24.3333V29.6667H28.3333C28.687 29.6667 29.0261 29.5262 29.2761 29.2762C29.5262 29.0261 29.6667 28.687 29.6667 28.3334V1.66671C29.6667 1.31309 29.5262 0.973946 29.2761 0.723897C29.0261 0.473849 28.687 0.333374 28.3333 0.333374Z" fill="#2EC5CE"></path>
  </symbol>
  <symbol fill="none" xmlns="http://www.w3.org/2000/svg" viewBox="0 0 32 32" id="icon6">
    <path d="M15.208 0.176053L0.781342 6.91605C0.683781 6.96079 0.601133 7.03263 0.543236 7.123C0.485339 7.21338 0.454633 7.31848 0.454773 7.42581C0.454914 7.53314 0.485894 7.63817 0.544027 7.7284C0.602161 7.81862 0.684997 7.89024 0.782675 7.93472L15.3227 14.6254C15.752 14.8227 16.248 14.8227 16.6773 14.6254L31.2173 7.93472C31.3151 7.89036 31.398 7.81886 31.4563 7.72871C31.5145 7.63856 31.5456 7.53357 31.5459 7.42624C31.5462 7.31891 31.5156 7.21376 31.4578 7.12331C31.4001 7.03286 31.3175 6.96092 31.22 6.91605L16.792 0.176053C16.5441 0.0601784 16.2737 0.00012207 16 0.00012207C15.7263 0.00012207 15.456 0.0601784 15.208 0.176053Z" fill="#8C30F5"></path>
    <path opacity="0.64" d="M31.22 15.5681L28.24 14.1761C28.0266 14.0764 27.794 14.0244 27.5584 14.0237C27.3229 14.023 27.09 14.0736 26.876 14.1721L16.6773 18.8654C16.4649 18.9631 16.2338 19.0137 16 19.0137C15.7662 19.0137 15.5351 18.9631 15.3227 18.8654L5.12267 14.1721C4.90885 14.0738 4.67621 14.0233 4.4409 14.024C4.20559 14.0247 3.97324 14.0766 3.76001 14.1761L0.780006 15.5681C0.682503 15.613 0.599949 15.6849 0.54217 15.7754C0.48439 15.8658 0.453823 15.971 0.454103 16.0783C0.454384 16.1856 0.485502 16.2906 0.543754 16.3808C0.602006 16.4709 0.684937 16.5424 0.782674 16.5868L15.3227 23.2761C15.535 23.3743 15.7661 23.4252 16 23.4252C16.2339 23.4252 16.465 23.3743 16.6773 23.2761L31.2173 16.5868C31.3151 16.5424 31.398 16.4709 31.4563 16.3808C31.5145 16.2906 31.5456 16.1856 31.5459 16.0783C31.5462 15.971 31.5156 15.8658 31.4578 15.7754C31.4001 15.6849 31.3175 15.613 31.22 15.5681Z" fill="#D6B1FF"></path>
    <path d="M31.22 24.1441L28.24 22.7521C28.0266 22.6524 27.794 22.6004 27.5585 22.5997C27.3229 22.599 27.09 22.6496 26.876 22.7481L16.6774 27.4401C16.4649 27.5378 16.2338 27.5883 16 27.5883C15.7662 27.5883 15.5351 27.5378 15.3227 27.4401L5.12269 22.7468C4.90887 22.6485 4.67623 22.5979 4.44091 22.5986C4.2056 22.5993 3.97326 22.6512 3.76002 22.7507L0.780019 24.1441C0.682891 24.1891 0.600708 24.261 0.543205 24.3513C0.485701 24.4416 0.455288 24.5465 0.455568 24.6536C0.455849 24.7607 0.486813 24.8654 0.544789 24.9554C0.602765 25.0454 0.685324 25.1169 0.782686 25.1614L15.3227 31.8521C15.752 32.0494 16.248 32.0494 16.6774 31.8521L31.2174 25.1614C31.3147 25.1169 31.3973 25.0454 31.4553 24.9554C31.5132 24.8654 31.5442 24.7607 31.5445 24.6536C31.5448 24.5465 31.5143 24.4416 31.4568 24.3513C31.3993 24.261 31.3172 24.1891 31.22 24.1441Z" fill="#2EC5CE"></path>
  </symbol>
  <symbol fill="none" xmlns="http://www.w3.org/2000/svg" viewBox="0 0 32 32" id="icon7">
    <path d="M12 13.3333H2.66668C2.31305 13.3333 1.97392 13.1929 1.72387 12.9428C1.47382 12.6928 1.33334 12.3536 1.33334 12V2.66668C1.33334 2.31305 1.47382 1.97392 1.72387 1.72387C1.97392 1.47382 2.31305 1.33334 2.66668 1.33334H12C12.3536 1.33334 12.6928 1.47382 12.9428 1.72387C13.1929 1.97392 13.3333 2.31305 13.3333 2.66668V12C13.3333 12.3536 13.1929 12.6928 12.9428 12.9428C12.6928 13.1929 12.3536 13.3333 12 13.3333Z" fill="#8C30F5"></path>
    <path d="M12 30.6667H2.66668C2.31305 30.6667 1.97392 30.5262 1.72387 30.2762C1.47382 30.0261 1.33334 29.687 1.33334 29.3334V20C1.33334 19.6464 1.47382 19.3073 1.72387 19.0572C1.97392 18.8072 2.31305 18.6667 2.66668 18.6667H12C12.3536 18.6667 12.6928 18.8072 12.9428 19.0572C13.1929 19.3073 13.3333 19.6464 13.3333 20V29.3334C13.3333 29.687 13.1929 30.0261 12.9428 30.2762C12.6928 30.5262 12.3536 30.6667 12 30.6667Z" fill="#8C30F5"></path>
    <path d="M17.3333 2.66669H30.6667V5.33335H17.3333V2.66669Z" fill="#2EC5CE"></path>
    <path d="M30.6667 20H17.3333V22.6667H30.6667V20Z" fill="#2EC5CE"></path>
    <path d="M30.6667 26.6667H17.3333V29.3334H30.6667V26.6667Z" fill="#D6B1FF"></path>
    <path d="M30.6667 9.33334H17.3333V12H30.6667V9.33334Z" fill="#D6B1FF"></path>
  </symbol>
</svg>